<?xml version="1.0" encoding="utf-8" standalone="no"?>
<!DOCTYPE svg PUBLIC "-//W3C//DTD SVG 1.1//EN"
  "http://www.w3.org/Graphics/SVG/1.1/DTD/svg11.dtd">
<svg xmlns:xlink="http://www.w3.org/1999/xlink" width="460.8pt" height="345.6pt" viewBox="0 0 460.8 345.6" xmlns="http://www.w3.org/2000/svg" version="1.1">
 <metadata>
  <rdf:RDF xmlns:dc="http://purl.org/dc/elements/1.1/" xmlns:cc="http://creativecommons.org/ns#" xmlns:rdf="http://www.w3.org/1999/02/22-rdf-syntax-ns#">
   <cc:Work>
    <dc:type rdf:resource="http://purl.org/dc/dcmitype/StillImage"/>
    <dc:date>2024-03-04T14:36:53.194968</dc:date>
    <dc:format>image/svg+xml</dc:format>
    <dc:creator>
     <cc:Agent>
      <dc:title>Matplotlib v3.7.2, https://matplotlib.org/</dc:title>
     </cc:Agent>
    </dc:creator>
   </cc:Work>
  </rdf:RDF>
 </metadata>
 <defs>
  <style type="text/css">*{stroke-linejoin: round; stroke-linecap: butt}</style>
 </defs>
 <g id="figure_1">
  <g id="patch_1">
   <path d="M 0 345.6 
L 460.8 345.6 
L 460.8 0 
L 0 0 
z
" style="fill: #ffffff"/>
  </g>
  <g id="axes_1">
   <g id="patch_2">
    <path d="M 57.6 307.584 
L 414.72 307.584 
L 414.72 41.472 
L 57.6 41.472 
z
" style="fill: #ffffff"/>
   </g>
   <g id="matplotlib.axis_1">
    <g id="xtick_1">
     <g id="line2d_1">
      <defs>
       <path id="m14ec6af50a" d="M 0 0 
L 0 3.5 
" style="stroke: #000000; stroke-width: 0.8"/>
      </defs>
      <g>
       <use xlink:href="#m14ec6af50a" x="117.12" y="307.584" style="stroke: #000000; stroke-width: 0.8"/>
      </g>
     </g>
     <g id="text_1">
      <!-- 静止 -->
      <g transform="translate(107.12 322.474625) scale(0.1 -0.1)">
       <defs>
        <path id="SimHei-9759" d="M 4325 5050 
Q 4200 4900 4137 4762 
Q 4075 4625 4025 4500 
L 5400 4500 
Q 5250 4275 5125 3987 
Q 5000 3700 4850 3375 
L 5775 3375 
Q 5750 3025 5750 2625 
L 5750 2350 
Q 5975 2350 6200 2375 
L 6200 1950 
Q 6025 1975 5750 1975 
L 5750 1625 
Q 5750 1125 5775 675 
L 5325 675 
L 5325 950 
L 4625 950 
L 4625 25 
Q 4600 -300 4412 -425 
Q 4225 -550 3600 -600 
Q 3600 -350 3450 -75 
Q 3775 -100 3987 -75 
Q 4200 -50 4200 175 
L 4200 950 
L 3850 950 
Q 3550 950 3225 925 
L 3225 1325 
Q 3525 1300 3850 1300 
L 4200 1300 
L 4200 1975 
L 3825 1975 
Q 3500 1975 3075 1950 
L 3075 2350 
Q 3425 2325 3850 2325 
L 4200 2325 
L 4200 3025 
L 3850 3025 
Q 3700 3025 3325 3000 
L 3325 3325 
Q 3250 3250 3125 3100 
Q 3000 3300 2825 3450 
Q 3225 3850 3437 4362 
Q 3650 4875 3775 5250 
Q 4025 5125 4325 5050 
z
M 2750 2325 
Q 2725 1975 2725 1600 
L 2725 75 
Q 2725 -300 2525 -400 
Q 2325 -500 1925 -575 
Q 1900 -350 1750 -100 
Q 2325 -100 2275 125 
L 2275 425 
L 975 425 
L 975 -525 
L 525 -525 
Q 550 -250 550 125 
L 550 1600 
Q 550 1975 525 2325 
L 2750 2325 
z
M 1400 4550 
Q 1400 4775 1375 5150 
L 1875 5150 
Q 1850 4775 1850 4550 
L 2175 4550 
Q 2525 4550 3000 4575 
L 3000 4175 
Q 2525 4200 2175 4200 
L 1850 4200 
L 1850 3800 
L 2175 3800 
Q 2325 3800 2725 3825 
L 2725 3425 
Q 2300 3450 2150 3450 
L 1850 3450 
L 1850 3050 
L 2250 3050 
Q 2600 3050 2975 3075 
L 2975 2675 
Q 2575 2700 2250 2700 
L 1000 2700 
Q 600 2700 250 2675 
L 250 3075 
Q 600 3050 1000 3050 
L 1400 3050 
L 1400 3450 
L 975 3450 
Q 825 3450 550 3425 
L 550 3825 
Q 825 3800 975 3800 
L 1400 3800 
L 1400 4200 
L 975 4200 
Q 650 4200 300 4175 
L 300 4575 
Q 650 4550 975 4550 
L 1400 4550 
z
M 3375 3425 
Q 3675 3400 4125 3400 
L 4375 3400 
Q 4625 3925 4700 4150 
L 3850 4150 
Q 3525 3625 3375 3425 
z
M 2275 775 
L 2275 1225 
L 975 1225 
L 975 775 
L 2275 775 
z
M 2275 1575 
L 2275 1975 
L 975 1975 
L 975 1575 
L 2275 1575 
z
M 5325 2325 
L 5325 3025 
L 4625 3025 
L 4625 2325 
L 5325 2325 
z
M 5325 1300 
L 5325 1975 
L 4625 1975 
L 4625 1300 
L 5325 1300 
z
" transform="scale(0.015625)"/>
        <path id="SimHei-6b62" d="M 1875 3700 
Q 1850 3250 1850 2825 
L 1850 250 
L 3150 250 
L 3150 4100 
Q 3150 4575 3125 5050 
L 3675 5050 
Q 3650 4600 3650 4100 
L 3650 3250 
L 4650 3250 
Q 5075 3250 5600 3275 
L 5600 2775 
Q 5075 2800 4650 2800 
L 3650 2800 
L 3650 250 
L 5025 250 
Q 5525 250 6050 275 
L 6050 -225 
Q 5525 -200 5025 -200 
L 1375 -200 
Q 850 -200 325 -225 
L 325 275 
Q 725 250 1325 250 
L 1325 2825 
Q 1325 3250 1300 3700 
L 1875 3700 
z
" transform="scale(0.015625)"/>
       </defs>
       <use xlink:href="#SimHei-9759"/>
       <use xlink:href="#SimHei-6b62" x="100"/>
      </g>
     </g>
    </g>
    <g id="xtick_2">
     <g id="line2d_2">
      <g>
       <use xlink:href="#m14ec6af50a" x="236.16" y="307.584" style="stroke: #000000; stroke-width: 0.8"/>
      </g>
     </g>
     <g id="text_2">
      <!-- 走路 -->
      <g transform="translate(226.16 322.513687) scale(0.1 -0.1)">
       <defs>
        <path id="SimHei-8d70" d="M 2100 2025 
Q 2025 1750 1987 1587 
Q 1950 1425 1925 1050 
Q 2450 450 2950 250 
L 2950 2525 
L 1350 2525 
Q 950 2525 400 2500 
L 400 2975 
Q 950 2950 2950 2950 
L 2950 3850 
Q 1650 3850 1150 3825 
L 1150 4300 
Q 1650 4275 2950 4275 
Q 2950 4625 2925 5100 
L 3450 5100 
Q 3425 4700 3425 4275 
Q 4925 4275 5400 4300 
L 5400 3825 
Q 4925 3850 3425 3850 
L 3425 2950 
Q 5375 2950 5825 2975 
L 5825 2500 
Q 5375 2525 3425 2525 
L 3425 1675 
Q 4925 1675 5375 1700 
L 5375 1225 
Q 4925 1250 3425 1250 
L 3425 125 
Q 3850 50 4725 75 
Q 5600 100 6100 150 
Q 5900 -125 5825 -425 
L 4475 -425 
Q 3725 -425 3375 -350 
Q 3025 -275 2587 -62 
Q 2150 150 1775 575 
Q 1500 -125 850 -650 
Q 650 -450 375 -350 
Q 1025 75 1225 475 
Q 1425 875 1475 1312 
Q 1525 1750 1525 2100 
Q 1850 2025 2100 2025 
z
" transform="scale(0.015625)"/>
        <path id="SimHei-8def" d="M 2900 425 
Q 1225 -75 475 -350 
Q 425 -150 275 125 
Q 525 150 700 225 
L 700 1800 
Q 700 2000 675 2325 
L 1150 2325 
Q 1125 2100 1125 1675 
L 1125 325 
Q 1300 375 1550 450 
L 1550 2975 
L 725 2975 
Q 750 3225 750 3850 
Q 750 4500 725 4750 
L 2650 4750 
Q 2625 4475 2625 3850 
Q 2625 3250 2650 2975 
L 1975 2975 
L 1975 2075 
Q 2275 2075 2600 2100 
L 2600 1650 
Q 2275 1675 1975 1675 
L 1975 550 
Q 2200 600 2900 875 
Q 2875 675 2900 425 
z
M 4225 5025 
Q 4075 4850 3925 4550 
L 5750 4550 
Q 5575 4125 5287 3650 
Q 5000 3175 4750 2850 
Q 5325 2400 6200 2200 
Q 6000 1950 5900 1750 
Q 5600 1875 5200 2087 
Q 4800 2300 4475 2550 
Q 4150 2300 3762 2100 
Q 3375 1900 2925 1700 
Q 2825 1925 2650 2125 
Q 2975 2200 3400 2375 
Q 3825 2550 4150 2825 
Q 3900 3075 3425 3650 
Q 3250 3350 3100 3150 
Q 2950 3300 2725 3425 
Q 3000 3675 3275 4187 
Q 3550 4700 3700 5225 
Q 3975 5050 4225 5025 
z
M 5525 1800 
Q 5500 1475 5500 650 
Q 5500 -150 5525 -525 
L 5050 -525 
L 5050 -50 
L 3625 -50 
L 3625 -550 
L 3175 -550 
Q 3200 -125 3200 650 
Q 3200 1450 3175 1800 
L 5525 1800 
z
M 5050 325 
L 5050 1400 
L 3625 1400 
L 3625 325 
L 5050 325 
z
M 2200 3350 
L 2200 4375 
L 1175 4375 
L 1175 3350 
L 2200 3350 
z
M 3650 4000 
Q 3950 3550 4425 3125 
Q 4575 3275 4775 3612 
Q 4975 3950 5075 4175 
L 3750 4175 
L 3650 4000 
z
" transform="scale(0.015625)"/>
       </defs>
       <use xlink:href="#SimHei-8d70"/>
       <use xlink:href="#SimHei-8def" x="100"/>
      </g>
     </g>
    </g>
    <g id="xtick_3">
     <g id="line2d_3">
      <g>
       <use xlink:href="#m14ec6af50a" x="355.2" y="307.584" style="stroke: #000000; stroke-width: 0.8"/>
      </g>
     </g>
     <g id="text_3">
      <!-- 运动 -->
      <g transform="translate(345.2 322.435562) scale(0.1 -0.1)">
       <defs>
        <path id="SimHei-8fd0" d="M 5050 1075 
Q 3750 925 3275 862 
Q 2800 800 2625 700 
L 2375 1225 
Q 2625 1325 2900 1775 
Q 3175 2225 3325 2925 
Q 2475 2925 2025 2900 
L 2025 3375 
Q 2500 3350 3950 3350 
Q 5400 3350 5825 3375 
L 5825 2900 
Q 5400 2925 3875 2925 
Q 3800 2650 3587 2200 
Q 3375 1750 3075 1275 
Q 4000 1350 4850 1425 
Q 4675 1750 4350 2150 
Q 4550 2250 4725 2425 
Q 5200 1825 5750 925 
Q 5525 800 5300 650 
Q 5175 875 5050 1075 
z
M 325 0 
Q 1100 500 1350 600 
L 1350 2600 
Q 900 2600 475 2575 
L 475 3050 
Q 950 3025 1400 3025 
L 1825 3025 
Q 1800 2550 1800 2275 
L 1800 700 
Q 2325 50 3787 37 
Q 5250 25 6050 150 
Q 5875 -175 5825 -450 
L 4200 -450 
Q 3550 -450 3112 -387 
Q 2675 -325 2375 -212 
Q 2075 -100 1825 112 
Q 1575 325 1237 25 
Q 900 -275 725 -475 
Q 550 -275 325 0 
z
M 5400 4275 
Q 4925 4300 3975 4300 
Q 3050 4300 2525 4275 
L 2525 4750 
Q 2975 4725 3950 4725 
Q 4925 4725 5400 4750 
L 5400 4275 
z
M 1475 3775 
Q 1175 4275 725 4725 
L 1075 5025 
Q 1725 4325 1875 4075 
L 1475 3775 
z
" transform="scale(0.015625)"/>
        <path id="SimHei-52a8" d="M 4125 5150 
Q 4425 5075 4700 5075 
Q 4650 4825 4637 4512 
Q 4625 4200 4625 3750 
L 6025 3750 
Q 6000 3425 5975 3025 
L 5850 175 
Q 5775 -325 5437 -437 
Q 5100 -550 4675 -600 
Q 4600 -300 4425 -50 
Q 4975 -75 5175 12 
Q 5375 100 5375 350 
L 5525 3325 
L 4625 3325 
Q 4575 2225 4462 1650 
Q 4350 1075 4112 587 
Q 3875 100 3150 -675 
Q 2900 -425 2700 -350 
Q 3175 25 3475 437 
Q 3775 850 3900 1287 
Q 4025 1725 4075 2200 
Q 4125 2675 4150 3325 
L 3725 3325 
Q 3450 3325 3075 3300 
L 3075 3775 
Q 3450 3750 3775 3750 
L 4150 3750 
L 4150 4450 
Q 4150 4800 4125 5150 
z
M 275 3025 
Q 650 3000 1175 3000 
L 2125 3000 
Q 2575 3000 3150 3025 
L 3150 2575 
Q 2575 2600 2150 2600 
L 1875 2600 
Q 1725 2200 1537 1750 
Q 1350 1300 1100 850 
Q 2075 950 2575 1050 
Q 2450 1350 2175 1800 
Q 2450 1950 2575 2050 
Q 2825 1600 3000 1287 
Q 3175 975 3375 525 
Q 3175 400 2925 275 
Q 2825 500 2750 650 
Q 1950 525 1462 450 
Q 975 375 625 250 
Q 525 500 375 725 
Q 700 925 962 1525 
Q 1225 2125 1350 2600 
L 1175 2600 
Q 650 2600 275 2575 
L 275 3025 
z
M 2000 4425 
Q 2425 4425 2950 4450 
L 2950 3975 
Q 2425 4000 2000 4000 
L 1400 4000 
Q 1000 4000 625 3975 
L 625 4450 
Q 975 4425 1375 4425 
L 2000 4425 
z
" transform="scale(0.015625)"/>
       </defs>
       <use xlink:href="#SimHei-8fd0"/>
       <use xlink:href="#SimHei-52a8" x="100"/>
      </g>
     </g>
    </g>
    <g id="text_4">
     <!-- 活动类型 -->
     <g transform="translate(216.16 335.732437) scale(0.1 -0.1)">
      <defs>
       <path id="SimHei-6d3b" d="M 5375 5000 
Q 5500 4775 5725 4525 
Q 5325 4475 4987 4425 
Q 4650 4375 4250 4325 
L 4250 3275 
L 5325 3275 
Q 5725 3275 6075 3300 
L 6075 2850 
Q 5775 2875 5325 2875 
L 4250 2875 
L 4250 1825 
L 5650 1825 
Q 5625 1350 5625 550 
Q 5625 -250 5650 -550 
L 5150 -550 
L 5150 -75 
L 2975 -75 
L 2975 -575 
L 2500 -575 
Q 2525 -250 2525 625 
Q 2525 1525 2500 1825 
L 3775 1825 
L 3775 2875 
L 2975 2875 
Q 2425 2875 2025 2850 
L 2025 3300 
Q 2450 3275 3000 3275 
L 3775 3275 
L 3775 4225 
Q 3100 4150 2475 4050 
Q 2450 4325 2275 4525 
Q 2825 4500 3962 4675 
Q 5100 4850 5375 5000 
z
M 5150 325 
L 5150 1425 
L 2975 1425 
L 2975 325 
L 5150 325 
z
M 2075 1725 
Q 1700 1000 1400 375 
Q 1100 -250 950 -525 
Q 700 -325 400 -200 
Q 600 25 900 500 
Q 1200 975 1650 2050 
Q 1875 1825 2075 1725 
z
M 725 3475 
Q 1250 3125 1900 2675 
Q 1725 2475 1550 2250 
Q 950 2725 400 3075 
Q 575 3275 725 3475 
z
M 1100 5025 
Q 1625 4675 2150 4225 
Q 1900 4025 1775 3825 
Q 1400 4225 750 4650 
Q 925 4825 1100 5025 
z
" transform="scale(0.015625)"/>
       <path id="SimHei-7c7b" d="M 2125 3875 
Q 1750 4375 1325 4725 
Q 1525 4875 1675 5050 
L 2525 4225 
Q 2400 4125 2200 3875 
L 3025 3875 
L 3025 4550 
Q 3025 4900 3000 5125 
L 3525 5125 
Q 3500 4850 3500 4550 
L 3500 3875 
L 4325 3875 
Q 4125 4050 4000 4150 
Q 4450 4575 4800 5175 
Q 5000 5000 5275 4825 
Q 5100 4675 4912 4475 
Q 4725 4275 4400 3875 
L 5025 3875 
Q 5425 3875 5900 3900 
L 5900 3450 
Q 5425 3475 5025 3475 
L 3500 3475 
L 3500 3050 
Q 3500 2650 3525 2175 
L 3175 2175 
Q 3475 2075 3675 2000 
Q 3575 1875 3525 1575 
L 5025 1575 
Q 5525 1575 6025 1600 
L 6025 1150 
Q 5550 1175 5050 1175 
L 3675 1175 
Q 4050 600 4712 275 
Q 5375 -50 6050 -175 
Q 5850 -350 5725 -675 
Q 4975 -450 4350 -37 
Q 3725 375 3300 950 
Q 3050 350 2425 -50 
Q 1800 -450 775 -700 
Q 650 -425 475 -225 
Q 1375 -100 2012 225 
Q 2650 550 2900 1175 
L 1625 1175 
Q 1025 1175 525 1150 
L 525 1600 
Q 950 1575 1600 1575 
L 3025 1575 
Q 3075 1825 3100 2175 
L 3000 2175 
Q 3025 2675 3025 3050 
L 3025 3325 
Q 2725 2900 2237 2550 
Q 1750 2200 925 1825 
Q 850 2025 625 2275 
Q 1175 2400 1725 2737 
Q 2275 3075 2600 3475 
L 1550 3475 
Q 1050 3475 600 3425 
L 600 3900 
Q 1075 3875 1550 3875 
L 2125 3875 
z
M 4100 3450 
Q 4850 3000 5800 2350 
Q 5575 2125 5425 1925 
Q 4700 2550 3825 3075 
Q 3975 3250 4100 3450 
z
" transform="scale(0.015625)"/>
       <path id="SimHei-578b" d="M 2625 1775 
Q 2650 2325 2650 2700 
L 2650 3000 
L 1825 3000 
Q 1725 2375 1425 2000 
Q 1125 1625 775 1425 
Q 650 1650 375 1900 
Q 850 2075 1062 2362 
Q 1275 2650 1350 3000 
Q 900 3000 375 2975 
L 375 3450 
Q 925 3425 1400 3425 
Q 1425 3950 1425 4475 
Q 1075 4475 700 4450 
L 700 4900 
Q 1050 4875 1525 4875 
L 3000 4875 
Q 3275 4875 3650 4900 
L 3650 4450 
Q 3325 4475 3125 4475 
L 3125 3425 
Q 3450 3425 3825 3450 
L 3825 2975 
Q 3450 3000 3125 3000 
L 3125 2675 
Q 3125 2225 3150 1775 
L 2625 1775 
z
M 3000 1175 
Q 3000 1375 2975 1725 
L 3500 1725 
Q 3475 1375 3475 1175 
L 4550 1175 
Q 5050 1175 5450 1200 
L 5450 725 
Q 4975 750 4550 750 
L 3475 750 
L 3475 -50 
L 5275 -50 
Q 5700 -50 6100 -25 
L 6100 -500 
Q 5725 -475 5300 -475 
L 1250 -475 
Q 775 -475 400 -500 
L 400 -25 
Q 775 -50 1250 -50 
L 3000 -50 
L 3000 750 
L 2025 750 
Q 1500 750 975 725 
L 1050 1200 
Q 1500 1175 2025 1175 
L 3000 1175 
z
M 5775 5200 
Q 5750 4775 5750 4325 
L 5750 2400 
Q 5775 1950 5612 1775 
Q 5450 1600 4900 1525 
Q 4825 1775 4675 2100 
Q 5175 2075 5237 2150 
Q 5300 2225 5300 2525 
L 5300 4325 
Q 5300 4775 5275 5200 
L 5775 5200 
z
M 4600 4750 
Q 4575 4450 4575 3975 
L 4575 3200 
Q 4575 2825 4600 2425 
L 4100 2425 
Q 4125 2825 4125 3200 
L 4125 3975 
Q 4125 4450 4100 4750 
L 4600 4750 
z
M 2650 3425 
L 2650 4475 
L 1875 4475 
Q 1850 3750 1850 3425 
L 2650 3425 
z
" transform="scale(0.015625)"/>
      </defs>
      <use xlink:href="#SimHei-6d3b"/>
      <use xlink:href="#SimHei-52a8" x="100"/>
      <use xlink:href="#SimHei-7c7b" x="200"/>
      <use xlink:href="#SimHei-578b" x="300"/>
     </g>
    </g>
   </g>
   <g id="matplotlib.axis_2">
    <g id="ytick_1">
     <g id="line2d_4">
      <defs>
       <path id="mc350f57954" d="M 0 0 
L -3.5 0 
" style="stroke: #000000; stroke-width: 0.8"/>
      </defs>
      <g>
       <use xlink:href="#mc350f57954" x="57.6" y="295.488" style="stroke: #000000; stroke-width: 0.8"/>
      </g>
     </g>
     <g id="text_5">
      <!-- 60 -->
      <g transform="translate(40.6 298.9255) scale(0.1 -0.1)">
       <defs>
        <path id="SimHei-36" d="M 250 1612 
Q 275 1975 387 2225 
Q 500 2475 725 2850 
L 1750 4450 
L 2325 4450 
L 1275 2800 
Q 1950 2975 2350 2750 
Q 2750 2525 2887 2237 
Q 3025 1950 3037 1612 
Q 3050 1275 2937 950 
Q 2825 625 2537 362 
Q 2250 100 1737 75 
Q 1225 50 862 262 
Q 500 475 362 862 
Q 225 1250 250 1612 
z
M 1025 787 
Q 1250 550 1625 525 
Q 2000 500 2250 775 
Q 2500 1050 2500 1575 
Q 2500 2100 2187 2300 
Q 1875 2500 1487 2450 
Q 1100 2400 925 2075 
Q 750 1750 775 1387 
Q 800 1025 1025 787 
z
" transform="scale(0.015625)"/>
        <path id="SimHei-30" d="M 225 2537 
Q 250 3200 412 3587 
Q 575 3975 875 4225 
Q 1175 4475 1612 4475 
Q 2050 4475 2375 4112 
Q 2700 3750 2800 3200 
Q 2900 2650 2862 1937 
Q 2825 1225 2612 775 
Q 2400 325 1975 150 
Q 1550 -25 1125 187 
Q 700 400 525 750 
Q 350 1100 275 1487 
Q 200 1875 225 2537 
z
M 750 2687 
Q 675 2000 800 1462 
Q 925 925 1212 700 
Q 1500 475 1800 612 
Q 2100 750 2237 1162 
Q 2375 1575 2375 2062 
Q 2375 2550 2337 2950 
Q 2300 3350 2112 3675 
Q 1925 4000 1612 4012 
Q 1300 4025 1062 3700 
Q 825 3375 750 2687 
z
" transform="scale(0.015625)"/>
       </defs>
       <use xlink:href="#SimHei-36"/>
       <use xlink:href="#SimHei-30" x="50"/>
      </g>
     </g>
    </g>
    <g id="ytick_2">
     <g id="line2d_5">
      <g>
       <use xlink:href="#mc350f57954" x="57.6" y="247.104" style="stroke: #000000; stroke-width: 0.8"/>
      </g>
     </g>
     <g id="text_6">
      <!-- 80 -->
      <g transform="translate(40.6 250.5415) scale(0.1 -0.1)">
       <defs>
        <path id="SimHei-38" d="M 175 1375 
Q 175 1675 325 1962 
Q 475 2250 825 2425 
Q 525 2600 425 2812 
Q 325 3025 312 3300 
Q 300 3575 387 3775 
Q 475 3975 650 4150 
Q 825 4325 1037 4387 
Q 1250 4450 1500 4450 
Q 1750 4450 1950 4400 
Q 2150 4350 2375 4187 
Q 2600 4025 2700 3725 
Q 2800 3425 2687 3025 
Q 2575 2625 2100 2400 
Q 2525 2275 2700 2012 
Q 2875 1750 2875 1375 
Q 2875 1000 2762 775 
Q 2650 550 2512 400 
Q 2375 250 2137 162 
Q 1900 75 1537 75 
Q 1175 75 912 162 
Q 650 250 475 425 
Q 300 600 237 837 
Q 175 1075 175 1375 
z
M 687 1400 
Q 675 1100 787 875 
Q 900 650 1200 587 
Q 1500 525 1825 600 
Q 2150 675 2275 950 
Q 2400 1225 2362 1500 
Q 2325 1775 2050 1962 
Q 1775 2150 1450 2125 
Q 1125 2100 912 1900 
Q 700 1700 687 1400 
z
M 775 3350 
Q 775 3100 950 2875 
Q 1125 2650 1500 2650 
Q 1875 2650 2062 2875 
Q 2250 3100 2237 3412 
Q 2225 3725 2012 3875 
Q 1800 4025 1437 4000 
Q 1075 3975 925 3787 
Q 775 3600 775 3350 
z
" transform="scale(0.015625)"/>
       </defs>
       <use xlink:href="#SimHei-38"/>
       <use xlink:href="#SimHei-30" x="50"/>
      </g>
     </g>
    </g>
    <g id="ytick_3">
     <g id="line2d_6">
      <g>
       <use xlink:href="#mc350f57954" x="57.6" y="198.72" style="stroke: #000000; stroke-width: 0.8"/>
      </g>
     </g>
     <g id="text_7">
      <!-- 100 -->
      <g transform="translate(35.6 202.1575) scale(0.1 -0.1)">
       <defs>
        <path id="SimHei-31" d="M 1400 3600 
Q 1075 3275 575 2975 
L 575 3450 
Q 1200 3875 1600 4450 
L 1900 4450 
L 1900 150 
L 1400 150 
L 1400 3600 
z
" transform="scale(0.015625)"/>
       </defs>
       <use xlink:href="#SimHei-31"/>
       <use xlink:href="#SimHei-30" x="50"/>
       <use xlink:href="#SimHei-30" x="100"/>
      </g>
     </g>
    </g>
    <g id="ytick_4">
     <g id="line2d_7">
      <g>
       <use xlink:href="#mc350f57954" x="57.6" y="150.336" style="stroke: #000000; stroke-width: 0.8"/>
      </g>
     </g>
     <g id="text_8">
      <!-- 120 -->
      <g transform="translate(35.6 153.7735) scale(0.1 -0.1)">
       <defs>
        <path id="SimHei-32" d="M 300 250 
Q 325 625 650 925 
Q 975 1225 1475 1862 
Q 1975 2500 2125 2850 
Q 2275 3200 2237 3450 
Q 2200 3700 2000 3862 
Q 1800 4025 1537 4000 
Q 1275 3975 1037 3800 
Q 800 3625 675 3275 
L 200 3350 
Q 400 3925 712 4187 
Q 1025 4450 1450 4475 
Q 1700 4500 1900 4462 
Q 2100 4425 2312 4287 
Q 2525 4150 2662 3875 
Q 2800 3600 2762 3212 
Q 2725 2825 2375 2287 
Q 2025 1750 1025 600 
L 2825 600 
L 2825 150 
L 300 150 
L 300 250 
z
" transform="scale(0.015625)"/>
       </defs>
       <use xlink:href="#SimHei-31"/>
       <use xlink:href="#SimHei-32" x="50"/>
       <use xlink:href="#SimHei-30" x="100"/>
      </g>
     </g>
    </g>
    <g id="ytick_5">
     <g id="line2d_8">
      <g>
       <use xlink:href="#mc350f57954" x="57.6" y="101.952" style="stroke: #000000; stroke-width: 0.8"/>
      </g>
     </g>
     <g id="text_9">
      <!-- 140 -->
      <g transform="translate(35.6 105.3895) scale(0.1 -0.1)">
       <defs>
        <path id="SimHei-34" d="M 2000 1100 
L 75 1100 
L 75 1525 
L 2100 4450 
L 2475 4450 
L 2475 1525 
L 3075 1525 
L 3075 1100 
L 2475 1100 
L 2475 150 
L 2000 150 
L 2000 1100 
z
M 2000 1525 
L 2000 3500 
L 600 1525 
L 2000 1525 
z
" transform="scale(0.015625)"/>
       </defs>
       <use xlink:href="#SimHei-31"/>
       <use xlink:href="#SimHei-34" x="50"/>
       <use xlink:href="#SimHei-30" x="100"/>
      </g>
     </g>
    </g>
    <g id="ytick_6">
     <g id="line2d_9">
      <g>
       <use xlink:href="#mc350f57954" x="57.6" y="53.568" style="stroke: #000000; stroke-width: 0.8"/>
      </g>
     </g>
     <g id="text_10">
      <!-- 160 -->
      <g transform="translate(35.6 57.0055) scale(0.1 -0.1)">
       <use xlink:href="#SimHei-31"/>
       <use xlink:href="#SimHei-36" x="50"/>
       <use xlink:href="#SimHei-30" x="100"/>
      </g>
     </g>
    </g>
    <g id="text_11">
     <!-- 心率 -->
     <g transform="translate(30.35 184.528) rotate(-90) scale(0.1 -0.1)">
      <defs>
       <path id="SimHei-5fc3" d="M 2700 3425 
Q 2675 3125 2675 2525 
L 2675 375 
Q 2675 75 2975 75 
L 4150 75 
Q 4425 50 4512 212 
Q 4600 375 4650 950 
Q 4900 750 5225 675 
Q 5050 -125 4875 -287 
Q 4700 -450 4450 -425 
L 2625 -425 
Q 2175 -425 2125 125 
L 2125 2500 
Q 2125 3000 2100 3425 
L 2700 3425 
z
M 1475 3075 
Q 1400 2925 1275 2287 
Q 1150 1650 925 750 
Q 625 850 325 900 
Q 675 1900 850 3200 
Q 1075 3150 1475 3075 
z
M 5075 3300 
Q 5650 2500 6175 1700 
Q 5900 1575 5650 1350 
Q 5125 2350 4625 3000 
Q 4850 3125 5075 3300 
z
M 3050 5250 
Q 3325 4775 3925 3925 
Q 3625 3775 3375 3600 
Q 2975 4425 2600 4950 
Q 2825 5075 3050 5250 
z
" transform="scale(0.015625)"/>
       <path id="SimHei-7387" d="M 3325 5150 
Q 3425 4900 3550 4525 
L 4800 4525 
Q 5250 4525 5800 4550 
L 5800 4125 
Q 5250 4175 4775 4175 
L 2800 4175 
Q 2975 4050 3300 3900 
Q 3075 3750 2875 3537 
Q 2675 3325 2475 3125 
L 3275 3125 
Q 3575 3425 3775 3775 
Q 4000 3600 4275 3425 
Q 3950 3250 3600 2875 
Q 3250 2500 2625 2000 
L 3850 2100 
Q 3725 2250 3600 2425 
Q 3750 2475 4000 2650 
Q 4250 2350 4700 1700 
Q 4475 1625 4225 1450 
Q 4175 1600 4025 1775 
Q 3700 1750 3425 1750 
L 3425 1050 
L 5150 1050 
Q 5675 1050 6100 1075 
L 6100 650 
Q 5700 675 5125 675 
L 3425 675 
L 3425 175 
Q 3425 -300 3450 -625 
L 2900 -625 
Q 2925 -300 2925 175 
L 2925 675 
L 1325 675 
Q 825 675 325 650 
L 325 1075 
Q 825 1050 1350 1050 
L 2925 1050 
L 2925 1700 
Q 2700 1675 2475 1637 
Q 2250 1600 2025 1525 
Q 1950 1775 1850 2000 
Q 2075 2025 2325 2200 
Q 2575 2375 2975 2800 
Q 2300 2725 2025 2625 
Q 1975 2875 1850 3175 
Q 2075 3175 2325 3487 
Q 2575 3800 2750 4175 
L 1700 4175 
Q 1150 4175 650 4125 
L 650 4550 
Q 1150 4525 1550 4525 
L 2975 4525 
Q 2900 4825 2800 5025 
Q 3025 5075 3325 5150 
z
M 1625 2575 
Q 1725 2400 1825 2200 
Q 1575 2050 1325 1862 
Q 1075 1675 800 1425 
Q 625 1675 475 1875 
Q 800 2025 1100 2212 
Q 1400 2400 1625 2575 
z
M 4850 2650 
Q 5125 2475 5337 2337 
Q 5550 2200 5875 1950 
Q 5675 1800 5500 1600 
Q 5300 1775 5062 1975 
Q 4825 2175 4575 2325 
Q 4725 2475 4850 2650 
z
M 5725 3525 
Q 5550 3450 5300 3262 
Q 5050 3075 4800 2825 
Q 4625 3050 4475 3175 
Q 4700 3325 4875 3487 
Q 5050 3650 5300 3925 
Q 5525 3700 5725 3525 
z
M 1050 3850 
Q 1425 3600 1775 3275 
Q 1575 3100 1425 2925 
Q 1075 3300 675 3525 
Q 875 3700 1050 3850 
z
" transform="scale(0.015625)"/>
      </defs>
      <use xlink:href="#SimHei-5fc3"/>
      <use xlink:href="#SimHei-7387" x="100"/>
     </g>
    </g>
   </g>
   <g id="line2d_10">
    <path d="M 99.264 271.296 
L 134.976 271.296 
L 134.976 247.104 
L 99.264 247.104 
L 99.264 271.296 
" clip-path="url(#pe121447a10)" style="fill: none; stroke: #000000; stroke-linecap: square"/>
   </g>
   <g id="line2d_11">
    <path d="M 117.12 271.296 
L 117.12 295.488 
" clip-path="url(#pe121447a10)" style="fill: none; stroke: #000000; stroke-linecap: square"/>
   </g>
   <g id="line2d_12">
    <path d="M 117.12 247.104 
L 117.12 235.008 
" clip-path="url(#pe121447a10)" style="fill: none; stroke: #000000; stroke-linecap: square"/>
   </g>
   <g id="line2d_13">
    <path d="M 108.192 295.488 
L 126.048 295.488 
" clip-path="url(#pe121447a10)" style="fill: none; stroke: #000000; stroke-linecap: square"/>
   </g>
   <g id="line2d_14">
    <path d="M 108.192 235.008 
L 126.048 235.008 
" clip-path="url(#pe121447a10)" style="fill: none; stroke: #000000; stroke-linecap: square"/>
   </g>
   <g id="line2d_15"/>
   <g id="line2d_16">
    <path d="M 218.304 235.008 
L 254.016 235.008 
L 254.016 210.816 
L 218.304 210.816 
L 218.304 235.008 
" clip-path="url(#pe121447a10)" style="fill: none; stroke: #000000; stroke-linecap: square"/>
   </g>
   <g id="line2d_17">
    <path d="M 236.16 235.008 
L 236.16 247.104 
" clip-path="url(#pe121447a10)" style="fill: none; stroke: #000000; stroke-linecap: square"/>
   </g>
   <g id="line2d_18">
    <path d="M 236.16 210.816 
L 236.16 198.72 
" clip-path="url(#pe121447a10)" style="fill: none; stroke: #000000; stroke-linecap: square"/>
   </g>
   <g id="line2d_19">
    <path d="M 227.232 247.104 
L 245.088 247.104 
" clip-path="url(#pe121447a10)" style="fill: none; stroke: #000000; stroke-linecap: square"/>
   </g>
   <g id="line2d_20">
    <path d="M 227.232 198.72 
L 245.088 198.72 
" clip-path="url(#pe121447a10)" style="fill: none; stroke: #000000; stroke-linecap: square"/>
   </g>
   <g id="line2d_21"/>
   <g id="line2d_22">
    <path d="M 337.344 150.336 
L 373.056 150.336 
L 373.056 89.856 
L 337.344 89.856 
L 337.344 150.336 
" clip-path="url(#pe121447a10)" style="fill: none; stroke: #000000; stroke-linecap: square"/>
   </g>
   <g id="line2d_23">
    <path d="M 355.2 150.336 
L 355.2 174.528 
" clip-path="url(#pe121447a10)" style="fill: none; stroke: #000000; stroke-linecap: square"/>
   </g>
   <g id="line2d_24">
    <path d="M 355.2 89.856 
L 355.2 53.568 
" clip-path="url(#pe121447a10)" style="fill: none; stroke: #000000; stroke-linecap: square"/>
   </g>
   <g id="line2d_25">
    <path d="M 346.272 174.528 
L 364.128 174.528 
" clip-path="url(#pe121447a10)" style="fill: none; stroke: #000000; stroke-linecap: square"/>
   </g>
   <g id="line2d_26">
    <path d="M 346.272 53.568 
L 364.128 53.568 
" clip-path="url(#pe121447a10)" style="fill: none; stroke: #000000; stroke-linecap: square"/>
   </g>
   <g id="line2d_27"/>
   <g id="line2d_28">
    <path d="M 99.264 259.2 
L 134.976 259.2 
" clip-path="url(#pe121447a10)" style="fill: none; stroke: #ff7f0e; stroke-linecap: square"/>
   </g>
   <g id="line2d_29">
    <path d="M 218.304 222.912 
L 254.016 222.912 
" clip-path="url(#pe121447a10)" style="fill: none; stroke: #ff7f0e; stroke-linecap: square"/>
   </g>
   <g id="line2d_30">
    <path d="M 337.344 126.144 
L 373.056 126.144 
" clip-path="url(#pe121447a10)" style="fill: none; stroke: #ff7f0e; stroke-linecap: square"/>
   </g>
   <g id="patch_3">
    <path d="M 57.6 307.584 
L 57.6 41.472 
" style="fill: none; stroke: #000000; stroke-width: 0.8; stroke-linejoin: miter; stroke-linecap: square"/>
   </g>
   <g id="patch_4">
    <path d="M 414.72 307.584 
L 414.72 41.472 
" style="fill: none; stroke: #000000; stroke-width: 0.8; stroke-linejoin: miter; stroke-linecap: square"/>
   </g>
   <g id="patch_5">
    <path d="M 57.6 307.584 
L 414.72 307.584 
" style="fill: none; stroke: #000000; stroke-width: 0.8; stroke-linejoin: miter; stroke-linecap: square"/>
   </g>
   <g id="patch_6">
    <path d="M 57.6 41.472 
L 414.72 41.472 
" style="fill: none; stroke: #000000; stroke-width: 0.8; stroke-linejoin: miter; stroke-linecap: square"/>
   </g>
   <g id="text_12">
    <!-- 心率箱线图 -->
    <g transform="translate(206.16 35.472) scale(0.12 -0.12)">
     <defs>
      <path id="SimHei-7bb1" d="M 5750 3350 
Q 5725 2925 5725 2625 
L 5725 750 
Q 5725 200 5750 -575 
L 5250 -575 
L 5250 -75 
L 3525 -75 
L 3525 -575 
L 3050 -575 
Q 3075 125 3075 600 
L 3075 2575 
Q 3075 2900 3050 3350 
L 5750 3350 
z
M 1450 2625 
Q 1450 3125 1425 3525 
L 1950 3525 
Q 1925 3200 1925 2625 
Q 2325 2625 2725 2650 
L 2725 2250 
Q 2375 2275 1925 2275 
L 1925 1675 
Q 2050 1750 2275 1950 
Q 2725 1425 2950 1100 
Q 2725 1000 2550 825 
Q 2375 1150 1925 1625 
L 1925 525 
Q 1925 0 1950 -625 
L 1425 -625 
Q 1450 0 1450 525 
L 1450 1450 
Q 1350 1200 1187 875 
Q 1025 550 600 25 
Q 450 300 250 450 
Q 575 775 875 1250 
Q 1175 1725 1325 2275 
Q 875 2275 450 2250 
L 450 2650 
Q 875 2625 1450 2625 
z
M 3350 4300 
Q 2825 4325 2325 4325 
Q 2400 4050 2550 3625 
Q 2275 3550 2050 3450 
Q 1975 3875 1850 4325 
L 1550 4325 
Q 1325 4000 1125 3787 
Q 925 3575 700 3400 
Q 525 3600 250 3750 
Q 800 4125 1100 4562 
Q 1400 5000 1500 5275 
Q 1775 5175 2125 5075 
Q 1975 4925 1825 4700 
L 2600 4700 
Q 3050 4700 3350 4725 
L 3350 4300 
z
M 5375 3675 
Q 5125 3575 4900 3475 
Q 4800 3825 4675 4275 
L 4175 4275 
Q 3775 3650 3600 3450 
Q 3325 3600 3125 3700 
Q 3450 4025 3700 4425 
Q 3950 4825 4125 5250 
Q 4400 5175 4700 5075 
Q 4525 4900 4400 4650 
L 5375 4650 
Q 5600 4650 6075 4675 
L 6075 4250 
Q 5375 4275 5125 4275 
Q 5200 4050 5375 3675 
z
M 5250 300 
L 5250 1025 
L 3525 1025 
L 3525 300 
L 5250 300 
z
M 5250 2375 
L 5250 3000 
L 3525 3000 
L 3525 2375 
L 5250 2375 
z
M 5250 1400 
L 5250 2000 
L 3525 2000 
L 3525 1400 
L 5250 1400 
z
" transform="scale(0.015625)"/>
      <path id="SimHei-7ebf" d="M 3450 4300 
Q 3450 4675 3375 5125 
Q 3700 5100 4050 5050 
Q 3975 4900 3950 4562 
Q 3925 4225 3950 3600 
L 4800 3750 
Q 5225 3850 5650 3975 
L 5750 3500 
Q 5325 3450 4875 3375 
L 3975 3200 
Q 3975 2800 4025 2500 
L 5000 2675 
Q 5500 2775 5950 2925 
L 6025 2450 
Q 5575 2375 5075 2275 
L 4100 2100 
Q 4150 1600 4350 1175 
Q 4575 1350 4787 1575 
Q 5000 1800 5175 2075 
Q 5550 1775 5750 1675 
Q 5425 1525 5237 1337 
Q 5050 1150 4625 750 
Q 4925 250 5162 112 
Q 5400 -25 5500 100 
Q 5600 225 5675 625 
Q 5900 450 6200 350 
Q 5775 -750 5275 -537 
Q 4775 -325 4225 450 
Q 3875 175 3537 -62 
Q 3200 -300 2700 -550 
Q 2575 -300 2325 -100 
Q 2825 75 3175 275 
Q 3525 475 3975 850 
Q 3750 1350 3650 2025 
Q 2900 1900 2600 1800 
L 2525 2275 
Q 2825 2275 3550 2425 
Q 3500 2825 3500 3100 
Q 2825 2950 2575 2875 
L 2475 3350 
Q 2725 3350 3450 3500 
L 3450 4300 
z
M 1950 4875 
Q 1700 4650 1462 4237 
Q 1225 3825 825 3225 
Q 1425 3250 1650 3250 
Q 1875 3625 2050 4075 
Q 2300 3900 2600 3800 
Q 2350 3550 2087 3125 
Q 1825 2700 1175 1675 
Q 1850 1725 2375 1775 
Q 2300 1525 2300 1350 
Q 2125 1350 1525 1287 
Q 925 1225 550 1125 
Q 525 1375 400 1650 
Q 700 1725 950 2050 
Q 1200 2375 1475 2875 
Q 650 2825 425 2675 
Q 350 2950 200 3225 
Q 525 3450 825 3962 
Q 1125 4475 1375 5150 
Q 1625 4975 1950 4875 
z
M 2575 875 
Q 2550 600 2575 450 
Q 1950 325 1450 200 
Q 950 75 525 -75 
Q 450 200 250 475 
Q 950 550 1325 612 
Q 1700 675 2575 875 
z
M 4850 4025 
Q 4675 4300 4375 4675 
L 4775 4875 
Q 4875 4750 5275 4275 
Q 5025 4175 4850 4025 
z
" transform="scale(0.015625)"/>
      <path id="SimHei-56fe" d="M 5800 4975 
Q 5775 4350 5775 3600 
L 5775 925 
Q 5775 150 5800 -600 
L 5300 -600 
L 5300 -275 
L 1125 -275 
L 1125 -650 
L 625 -650 
Q 650 125 650 950 
L 650 3600 
Q 650 4325 625 4975 
L 5800 4975 
z
M 5300 150 
L 5300 4575 
L 1125 4575 
L 1125 150 
L 5300 150 
z
M 3225 4250 
Q 3075 4100 2950 3925 
L 4625 3925 
Q 4525 3700 4300 3375 
Q 4075 3050 3600 2600 
Q 4350 2225 5075 2150 
Q 4900 1925 4775 1675 
Q 3850 1950 3225 2350 
Q 2500 1875 1675 1650 
Q 1600 1875 1400 2075 
Q 2200 2200 2875 2600 
Q 2525 2925 2375 3150 
Q 2150 2900 1900 2650 
Q 1725 2850 1525 2950 
Q 1950 3300 2250 3737 
Q 2550 4175 2675 4475 
Q 2925 4350 3225 4250 
z
M 2450 1275 
Q 3550 950 4100 725 
Q 3975 525 3850 300 
Q 2825 725 2275 850 
Q 2375 1050 2450 1275 
z
M 2925 2050 
Q 3775 1700 4075 1600 
Q 3950 1400 3850 1150 
Q 3000 1550 2700 1650 
Q 2825 1825 2925 2050 
z
M 2625 3450 
Q 3000 3025 3275 2850 
Q 3600 3100 3875 3525 
L 2675 3525 
L 2625 3450 
z
" transform="scale(0.015625)"/>
     </defs>
     <use xlink:href="#SimHei-5fc3"/>
     <use xlink:href="#SimHei-7387" x="100"/>
     <use xlink:href="#SimHei-7bb1" x="200"/>
     <use xlink:href="#SimHei-7ebf" x="300"/>
     <use xlink:href="#SimHei-56fe" x="400"/>
    </g>
   </g>
  </g>
 </g>
 <defs>
  <clipPath id="pe121447a10">
   <rect x="57.6" y="41.472" width="357.12" height="266.112"/>
  </clipPath>
 </defs>
</svg>
